<svg xmlns="http://www.w3.org/2000/svg" width="1760" height="920"><style>.label { font: lighter 16px sans-serif; fill: #fff }.value { font: bold 16px sans-serif; fill: #fff }.root-node-label { font: 24px sans-serif; fill: #fff }</style><g><rect rx="15" style="fill:purple;fill-opacity:.6;stroke:purple;stroke-width:3" x="780.0" y="20" width="200" height="80"></rect><text class="root-node-label" x="845.0" y="70">ROOT</text><line x1="880.0" y1="100" x2="440.0" y2="250" style="stroke:purple;stroke-width:2" /><line x1="880.0" y1="100" x2="1320.0" y2="250" style="stroke:purple;stroke-width:2" /></g><g><rect rx="15" style="fill:purple;fill-opacity:.6;stroke:purple;stroke-width:3" x="340.0" y="250" width="200" height="80"></rect><text class="label" x="360.0" y="285">Column index</text><text class="value" x="470.0" y="285">2</text><text class="label" x="360.0" y="305">Split condition</text><text class="value" x="470.0" y="305">&#60; 275.00</text><line x1="440.0" y1="330" x2="220.0" y2="480" style="stroke:purple;stroke-width:2" /><line x1="440.0" y1="330" x2="660.0" y2="480" style="stroke:purple;stroke-width:2" /></g><g><rect rx="15" style="fill:purple;fill-opacity:.6;stroke:purple;stroke-width:3" x="1220.0" y="250" width="200" height="80"></rect><text class="label" x="1240.0" y="285">Column index</text><text class="value" x="1350.0" y="285">2</text><text class="label" x="1240.0" y="305">Split condition</text><text class="value" x="1350.0" y="305">&#8805; 275.00</text></g><g><rect rx="15" style="fill:purple;fill-opacity:.6;stroke:purple;stroke-width:3" x="120.0" y="480" width="200" height="80"></rect><text class="label" x="140.0" y="515">Column index</text><text class="value" x="250.0" y="515">1</text><text class="label" x="140.0" y="535">Split condition</text><text class="value" x="250.0" y="535">&#60; 0.50</text><line x1="220.0" y1="560" x2="110.0" y2="710" style="stroke:purple;stroke-width:2" /><line x1="220.0" y1="560" x2="330.0" y2="710" style="stroke:purple;stroke-width:2" /></g><g><rect rx="15" style="fill:purple;fill-opacity:.6;stroke:purple;stroke-width:3" x="560.0" y="480" width="200" height="80"></rect><text class="label" x="580.0" y="515">Column index</text><text class="value" x="690.0" y="515">1</text><text class="label" x="580.0" y="535">Split condition</text><text class="value" x="690.0" y="535">&#8805; 0.50</text></g><g><rect rx="15" style="fill:purple;fill-opacity:.6;stroke:purple;stroke-width:3" x="10.0" y="710" width="200" height="80"></rect><text class="label" x="30.0" y="745">Column index</text><text class="value" x="140.0" y="745">3</text><text class="label" x="30.0" y="765">Split condition</text><text class="value" x="140.0" y="765">&#60; 0.50</text></g><g><rect rx="15" style="fill:purple;fill-opacity:.6;stroke:purple;stroke-width:3" x="230.0" y="710" width="200" height="80"></rect><text class="label" x="250.0" y="745">Column index</text><text class="value" x="360.0" y="745">3</text><text class="label" x="250.0" y="765">Split condition</text><text class="value" x="360.0" y="765">&#8805; 0.50</text></g></svg>