<svg id="Layer_1" data-name="Layer 1" xmlns="http://www.w3.org/2000/svg" xmlns:xlink="http://www.w3.org/1999/xlink" viewBox="0 0 841.89 225.69"><defs><pattern id="Unnamed_Pattern" data-name="Unnamed Pattern" width="17.42" height="17.42" patternTransform="translate(-43.57 -94.5) scale(2.61)" patternUnits="userSpaceOnUse" viewBox="0 0 17.42 17.42"><rect width="17.42" height="17.42" style="fill:none"/><rect width="17.42" height="17.42" style="fill:#DDDDDD"/></pattern></defs><title>NoFuss Logo</title><path d="M216.28,16.38C116.49,16.38,35.59,60,35.59,113.71s80.9,97.34,180.69,97.34S397,167.47,397,113.71,316.07,16.38,216.28,16.38Zm0,29.65a201.36,201.36,0,0,1,59.34,8.59L107.7,144.31c-8.39-9.19-13.15-19.58-13.15-30.6C94.55,76.33,149.05,46,216.28,46Zm0,135.37c-24.15,0-46.63-3.93-65.56-10.67L321.39,79.58c10.54,10,16.62,21.68,16.62,34.13C338,151.1,283.51,181.4,216.28,181.4Z" style="fill:#EEEEEE;stroke-miterlimit:10;stroke-width:5.21319470723004px;stroke:url(#Unnamed_Pattern)"/><polygon points="72.71 141.88 44.6 101.49 45 141.88 21.17 141.88 21.17 77.23 56.6 77.23 84.45 117.38 84.05 77.23 107.88 77.23 107.88 141.88 72.71 141.88" style="fill:#f4822d"/><path d="M105,80.09V139H74.21L43.59,95H41.67l.43,44H24V80.09H55.1L85.55,124h1.83L87,80.09H105m5.73-5.73H81.16l0,5.79.28,27.93L59.81,76.82,58.1,74.36H18.31v70.39H47.89l0-5.79-.28-28.2L69.5,142.29l1.72,2.46h39.52V74.36Z"/><path d="M140.32,142.94c-14.93,0-21.1-.73-25.94-4.83s-5.72-9.16-5.72-21.36c0-9.5,1-15.06,6.38-19.08,4.35-3.26,10.71-4.37,25.19-4.37,14.66,0,20.79,1.07,25.2,4.37,5.45,4.11,6.37,9.39,6.37,19.7,0,11.14-.79,16.48-5.71,20.72C161.6,141.9,156.06,142.94,140.32,142.94Zm0-32.16c-10.76,0-10.76,1-10.76,7.65,0,5.23.63,5.49,1.67,5.92s3.23,1.11,9.09,1.11c10.58,0,10.58-.85,10.58-7.47,0-5.41-.84-5.75-1.9-6.18S144.93,110.78,140.32,110.78Z" style="fill:#f4822d"/><path d="M140.23,96.17c13.88,0,19.71,1,23.48,3.8,4.11,3.09,5.22,6.89,5.22,17.4,0,11.48-1,15.37-4.71,18.55-3.85,3.27-8.91,4.15-23.91,4.15-15.16,0-20.22-.88-24.07-4.15s-4.71-7.07-4.71-19.17c0-9.8,1.2-13.78,5.22-16.78,3.77-2.83,9.68-3.8,23.48-3.8m.08,32.15c11.49,0,13.46-1.5,13.46-10.33,0-5.65-.86-7.69-3.69-8.84-1.88-.79-5.48-1.23-9.77-1.23-11.56,0-13.62,1.59-13.62,10.51,0,5.56.69,7.42,3.43,8.57,1.88.88,5.31,1.32,10.19,1.32m-.08-37.89c-15.39,0-21.93,1.21-26.92,4.95-6.32,4.71-7.52,11.15-7.52,21.37,0,12.6-.86,19.32,4.95,24.22,5.59,4.74,14.57,4.84,29.57,4.84s23.42.24,29-4.51c5.77-5,5.34-12.1,5.34-23.93,0-11.07-1.13-17.18-7.52-22-5-3.74-11.53-4.95-26.92-4.95Zm-7.44,23.88c.54-.24,2.24-.66,7.52-.66a26.31,26.31,0,0,1,7.48.76A18.07,18.07,0,0,1,148,118a15.44,15.44,0,0,1-.32,4c-.63.25-2.41.6-7.4.6-5.52,0-7.34-.61-7.7-.76a21.29,21.29,0,0,1-.18-3.4,14.28,14.28,0,0,1,.36-4.12Z"/><path d="M262.19,142.94c-10.38,0-16.13-1.72-20.51-6.15-4.65-4.79-5.39-9.1-5.39-20.48v-22h21.24v22c0,6,.48,6.86,1.21,7.56,1,1,2.57,1.5,8.09,1.5s7.27-.64,8.36-1.59,1.73-1.92,1.73-9.77V94.36h21.24v47.52H277.8V139.6C273.64,142.43,268,142.94,262.19,142.94Z" style="fill:#f4822d"/><path d="M295.29,97.23V139H280.67v-6.27h-.79c-2.37,5.3-7.27,7.33-17.69,7.33-9.63,0-14.71-1.5-18.48-5.3s-4.55-7.06-4.55-18.46V97.23h15.5v19.08c0,6.1.44,8,2.1,9.63,1.84,1.77,4.2,2.3,10.07,2.3,5.52,0,8.32-.62,10.25-2.3,2.19-2,2.71-4.15,2.71-11.93V97.23h15.5M301,91.49h-27V114c0,6.94-.52,7.4-.79,7.64s-1.92.85-6.44.85c-3.6,0-5.59-.22-6.09-.69-.14-.42-.35-1.68-.35-5.5V91.49h-27v24.82c0,12.07.9,17,6.17,22.45,5.81,5.86,13.23,7.05,22.6,7.05a40,40,0,0,0,12.74-1.65v.59H301V91.49Z"/><path d="M328,142.94c-15,0-21.19-.77-25.8-5.11-3.09-2.8-4.47-6.43-4.57-12.1a2.82,2.82,0,0,1,.82-2.06,2.85,2.85,0,0,1,2-.86h3.24c-3.43-2.25-5.84-6.07-5.84-12.51,0-7.6,3-12.6,9-14.87,3.62-1.44,10.76-2.13,22.41-2.13,14.93,0,20.44,1,24.57,4.58,3.15,2.55,3.95,5.84,4.31,11a2.86,2.86,0,0,1-2.86,3.06h-1.71c4,2.15,6.76,6.14,6.76,13.48C360.39,141.21,350,142.94,328,142.94Zm-8.81-17c.38.71,2.05,1.51,9.94,1.51,7.7,0,9.66-.62,10.13-1h0a5.71,5.71,0,0,0-1.1-.26C336.32,126.07,332.77,126,319.2,126Zm1.1-16.75c2.2.14,4.85.22,16.48.3a.65.65,0,0,0,0-.13c-.64-.24-2.51-.65-7.86-.65A50.73,50.73,0,0,0,320.3,109.23Z" style="fill:#f4822d"/><path d="M329.32,96.17c14.06,0,19.21.88,22.7,3.89,2.19,1.76,3,4,3.32,9H339.62c-.35-1.33-.52-1.59-1-1.95-1.31-.88-4.46-1.23-9.7-1.23-9.69,0-12.66.79-12.66,3.44,0,1.68,1.22,2.56,3.67,2.74s5.24.27,21.13.35c12,.09,16.5,3.62,16.5,13,0,11.93-5.59,14.66-29.51,14.66-15,0-20.17-.88-23.84-4.33-2.53-2.29-3.58-5.21-3.67-10.07h15.72c.26,3.63,3.23,4.69,12.92,4.69,10.05,0,12.93-.89,12.93-3.89,0-1.68-1.31-2.83-3.58-3.09-2.1-.18-5.94-.27-21.13-.27-11.7-.17-16.59-3.89-16.59-12.81,0-6.45,2.27-10.33,7.16-12.19,3.31-1.32,10.56-1.94,21.39-1.94m0-5.74c-15.62,0-20.78,1.26-23.52,2.36-4.86,1.84-9.37,6.29-9.37,17.39,0,4.16-.51,7.74,1.25,10.51a5.63,5.63,0,0,0-1.27,1c-1.08,1.09-.33,3.11-.3,4.65.07,4.35-.7,10.45,4.07,14.77,5.32,5,12.67,4.73,27.83,4.73,20.64,0,35.25,2.77,35.25-20.4,0-5.65-1.46-9.61-3.77-12.39l0,0a5.71,5.71,0,0,0,1.53-4.31c-.39-5.64-1.42-9.79-5.36-13-5.24-4.46-12.39-5.22-26.38-5.22Z"/><path d="M388.94,142.94c-15,0-21.19-.77-25.8-5.11-3.09-2.8-4.47-6.43-4.57-12.1a2.82,2.82,0,0,1,.82-2.06,2.85,2.85,0,0,1,2-.86h3.24c-3.43-2.25-5.84-6.07-5.84-12.51,0-7.6,3-12.6,9-14.87,3.62-1.44,10.76-2.13,22.41-2.13,14.93,0,20.44,1,24.57,4.58,3.15,2.55,3.95,5.83,4.31,11a2.86,2.86,0,0,1-2.86,3.06h-1.71c4,2.15,6.76,6.14,6.76,13.48C421.32,141.21,411,142.94,388.94,142.94Zm-8.81-17c.38.71,2.05,1.51,9.94,1.51,7.7,0,9.65-.62,10.13-1h0a5.25,5.25,0,0,0-1.1-.26C397.25,126.07,393.71,126,380.13,126Zm1.1-16.75c2.2.14,4.85.22,16.48.3a.65.65,0,0,0,0-.13c-.64-.24-2.51-.65-7.86-.65A50.73,50.73,0,0,0,381.23,109.23Z" style="fill:#f4822d"/><path d="M390.25,96.17c14.06,0,19.21.88,22.7,3.89,2.18,1.76,3,4,3.32,9H400.55c-.35-1.33-.52-1.59-1.05-1.95-1.31-.88-4.45-1.23-9.69-1.23-9.69,0-12.66.79-12.66,3.44,0,1.68,1.22,2.56,3.67,2.74s5.24.27,21.13.35c12,.09,16.5,3.62,16.5,13,0,11.93-5.59,14.66-29.51,14.66-15,0-20.17-.88-23.84-4.33-2.53-2.29-3.58-5.21-3.67-10.07h15.72c.26,3.63,3.23,4.69,12.92,4.69,10,0,12.93-.89,12.93-3.89,0-1.68-1.31-2.83-3.58-3.09-2.1-.18-5.94-.27-21.14-.27-11.7-.17-16.59-3.89-16.59-12.81,0-6.45,2.28-10.33,7.17-12.19,3.31-1.32,10.56-1.94,21.39-1.94m0-5.74c-15.62,0-20.78,1.26-23.52,2.36C361.87,94.63,356,99.2,356,110.3c0,4.16,2.9,7.87,4.66,10.64-.46.26-.44,1.08-.82,1.46a6,6,0,0,0-1.34,4.34c.08,4.34-2.12,10.56,2.65,14.89,5.32,5,12.67,4.18,27.83,4.18,20.64,0,35.25-1.47,35.25-20.4,0-5.65-1.46-9.61-3.77-12.39l0,0a5.71,5.71,0,0,0,1.53-4.31c-.39-5.64-1.43-9.8-5.37-13-5.24-4.46-12.39-5.22-26.37-5.22Z"/><polygon points="172.19 141.88 172.19 77.23 238 77.23 238 96.83 195.22 96.83 195.22 102.23 235.87 102.23 235.87 121.47 195.22 121.47 195.22 141.88 172.19 141.88" style="fill:#f4822d"/><path d="M235.13,80.09V94H192.36v11.13H233v13.52H192.36V139h-17.3V80.09h60.07m5.73-5.73H169.33v70.39h28.76V124.34h40.64V99.69L238,98l2.86-4V74.36Z"/><path d="M457.32,123.33c0,2.81.28,3.72,1.4,4.43,1.34.84,2.88,1,12.93,1,15.31,0,15.31,0,15.31-4.14,0-2.81-1.06-3.51-5.62-3.59l-11.24-.42-7.58-.35-3.8-.14c-11.59-.35-14.82-3.3-14.82-13.63,0-8.91,2.53-12.92,9-14.32,2.74-.57,9.2-.85,20.44-.85,13.63,0,18.55.63,21.85,2.88,2.8,1.9,3.93,4.85,3.93,10.4,0,.28,0,1.26-.07,2.18H485.27c-.14-2.6-.35-3.24-1.4-3.87s-2.95-.84-13.07-.84c-12.08,0-13.06.28-13.06,3.72,0,1.76.63,2.67,2.1,3,1.27.35,5.13.57,15,.85,15.45.49,18.47.84,21.49,2.74,3.23,2.1,4.42,5.26,4.42,11.8,0,8.14-2,12.15-6.81,14-2.81,1.06-8.71,1.41-22.69,1.41-14.54,0-20.22-.63-23.53-2.74s-4.28-4.78-4.28-11.24v-2.25Z"/><path d="M547.16,107.81c3.37,2.46,4.28,5.48,4.28,13.84,0,9.13-.84,12.22-3.86,14.75-3.17,2.6-7.31,3.3-19.6,3.3s-16.58-.7-19.74-3.3-3.86-5.62-3.86-15.25c0-7.79,1-11,4.28-13.34,3.09-2.25,7.94-3,19.25-3S544.06,105.56,547.16,107.81Zm-30.35,14.68c0,4.43.56,5.9,2.81,6.81,1.55.71,4.36,1.06,8.36,1.06,9.41,0,11-1.2,11-8.22,0-4.5-.7-6.11-3-7a24.56,24.56,0,0,0-8-1C518.5,114.13,516.81,115.4,516.81,122.49Z"/><path d="M568.51,92v46.85H556.08V92Z"/><path d="M607.21,138.86v-5h-.63c-1.9,4.21-5.83,5.83-14.19,5.83-7.73,0-11.8-1.2-14.82-4.21s-3.66-5.62-3.66-14.69V105.63h12.44V120.8c0,4.85.35,6.39,1.68,7.66,1.48,1.41,3.37,1.83,8.08,1.83,4.42,0,6.67-.5,8.22-1.83,1.75-1.54,2.17-3.3,2.17-9.48V105.63h12.44v33.23Z"/><path d="M640.64,98v7.65h19.67v8.92H640.64v9.69c0,3.66.07,4.15.64,5,.63,1.13,1.89,1.62,4.28,1.62s3.93-.49,4.5-1.69c.42-.77.49-1,.49-4.49h11.37c-.14,6.32-.63,8.36-2.52,10.82-2.53,3.15-6.33,4.21-14.89,4.21-7.94,0-11.17-.7-13.63-3.09-1.76-1.76-2.46-3.58-2.6-7.38-.07-.56-.07-2.24-.07-5v-9.69h-6.53v-8.92h6.53V98Z"/><path d="M677.59,92v9.34H665.16V92Zm0,13.62v33.23H665.16V105.63Z"/><path d="M725.07,107.81c3.37,2.46,4.29,5.48,4.29,13.84,0,9.13-.85,12.22-3.87,14.75s-7.3,3.3-19.59,3.3-16.58-.7-19.74-3.3-3.87-5.62-3.87-15.25c0-7.79,1-11,4.29-13.34,3.09-2.25,7.93-3,19.24-3S722,105.56,725.07,107.81Zm-30.34,14.68c0,4.43.56,5.9,2.81,6.81,1.54.71,4.35,1.06,8.36,1.06,9.41,0,11-1.2,11-8.22,0-4.5-.7-6.11-3-7a24.44,24.44,0,0,0-8-1C696.41,114.13,694.73,115.4,694.73,122.49Z"/><path d="M745.72,105.63v5.06h.63c2.25-4.28,6-5.9,14.12-5.9s12,1.12,15,4.14,3.65,5.69,3.65,14.82v15.11H766.65V123.75c0-5.33-.21-6.53-1.54-7.79s-3.73-1.83-8.36-1.83-7,.63-8.5,2.18-1.83,3.16-1.83,9.27v13.28H734V105.63Z"/><path d="M796.08,128.25c.21,2.88,2.6,3.72,10.4,3.72,8.08,0,10.39-.7,10.39-3.09,0-1.33-1-2.24-2.88-2.46s-4.77-.21-17-.21c-9.41-.14-13.34-3.09-13.34-10.18,0-5.13,1.83-8.22,5.76-9.7,2.67-1,8.5-1.54,17.21-1.54,11.31,0,15.45.7,18.26,3.09,1.76,1.4,2.39,3.16,2.67,7.17H814.91c-.29-1.06-.43-1.27-.85-1.55-1-.7-3.58-1-7.79-1-7.8,0-10.19.63-10.19,2.73,0,1.34,1,2,2.95,2.18s4.22.21,17,.28c9.62.07,13.28,2.88,13.28,10.33,0,9.48-4.5,11.66-23.74,11.66-12.09,0-16.23-.7-19.18-3.44-2-1.83-2.88-4.15-2.95-8Z"/></svg>